<svg xmlns="http://www.w3.org/2000/svg" xmlns:xlink="http://www.w3.org/1999/xlink" contentStyleType="text/css" data-diagram-type="CLASS" height="883px" preserveAspectRatio="none" style="width:1411px;height:883px;background:#FFFFFF;" version="1.1" viewBox="0 0 1411 883" width="1411px" zoomAndPan="magnify"><defs/><g><!--cluster IN--><g class="cluster" data-entity="IN" data-source-line="8" data-uid="ent0002" id="cluster_IN"><path d="M125,6.5283 L533.8008,6.5283 A6,6 0 0 1 537.8008,10.5283 L544.8008,30.8389 L543,30.8389 A4,4 0 0 1 547,34.8389 L547,676.5283 A4,4 0 0 1 543,680.5283 L125,680.5283 A4,4 0 0 1 121,676.5283 L121,10.5283 A4,4 0 0 1 125,6.5283" fill="#FAFAFA" style="stroke:#7F7F7F;stroke-width:1.5;"/><line style="stroke:#7F7F7F;stroke-width:1.5;" x1="121" x2="544.8008" y1="30.8389" y2="30.8389"/><text fill="#1F2937" font-family="Calibri, Carlito, sans-serif" font-size="15" font-weight="bold" lengthAdjust="spacing" textLength="410.8008" x="125" y="22.8105">Inbound &#8212; Messenger webhook payload (fields the service reads)</text></g><!--cluster OUT--><g class="cluster" data-entity="OUT" data-source-line="35" data-uid="ent0008" id="cluster_OUT"><path d="M575,358.5283 L843.1685,358.5283 A6,6 0 0 1 847.1685,362.5283 L854.1685,382.8389 L1400,382.8389 A4,4 0 0 1 1404,386.8389 L1404,872.5283 A4,4 0 0 1 1400,876.5283 L575,876.5283 A4,4 0 0 1 571,872.5283 L571,362.5283 A4,4 0 0 1 575,358.5283" fill="#FAFAFA" style="stroke:#7F7F7F;stroke-width:1.5;"/><line style="stroke:#7F7F7F;stroke-width:1.5;" x1="571" x2="854.1685" y1="382.8389" y2="382.8389"/><text fill="#1F2937" font-family="Calibri, Carlito, sans-serif" font-size="15" font-weight="bold" lengthAdjust="spacing" textLength="270.1685" x="575" y="374.8105">Outbound &#8212; WhatsApp Cloud API requests</text></g><!--cluster MEM--><g class="cluster" data-entity="MEM" data-source-line="67" data-uid="ent0015" id="cluster_MEM"><path d="M10,704.5283 L111.8281,704.5283 A6,6 0 0 1 115.8281,708.5283 L122.8281,728.8389 L470,728.8389 A4,4 0 0 1 474,732.8389 L474,863.5283 A4,4 0 0 1 470,867.5283 L10,867.5283 A4,4 0 0 1 6,863.5283 L6,708.5283 A4,4 0 0 1 10,704.5283" fill="#FAFAFA" style="stroke:#7F7F7F;stroke-width:1.5;"/><line style="stroke:#7F7F7F;stroke-width:1.5;" x1="6" x2="122.8281" y1="728.8389" y2="728.8389"/><text fill="#1F2937" font-family="Calibri, Carlito, sans-serif" font-size="15" font-weight="bold" lengthAdjust="spacing" textLength="103.8281" x="10" y="720.8105">In-memory state</text></g><!--class WB--><g class="entity" data-entity="WB" data-source-line="9" data-uid="ent0003" id="entity_WB"><rect fill="#FFFFFF" height="72.9316" rx="4" ry="4" style="stroke:#7030A0;stroke-width:0.5;" width="102.6226" x="384.5" y="43.5283"/><rect fill="#EDE4F5" height="28.3105" rx="4" ry="4" style="stroke:#EDE4F5;stroke-width:0.5;" width="102.6226" x="384.5" y="43.5283"/><rect fill="#EDE4F5" height="4" style="stroke:#EDE4F5;stroke-width:0.5;" width="102.6226" x="384.5" y="67.8389"/><rect fill="none" height="72.9316" rx="4" ry="4" style="stroke:#7030A0;stroke-width:0.5;" width="102.6226" x="384.5" y="43.5283"/><text fill="#1F2937" font-family="Calibri, Carlito, sans-serif" font-size="15" font-weight="bold" lengthAdjust="spacing" textLength="95.2295" x="388.1965" y="62.8105">Webhook body</text><line style="stroke:#7030A0;stroke-width:0.5;" x1="385.5" x2="486.1226" y1="71.8389" y2="71.8389"/><text fill="#1F2937" font-family="Calibri, Carlito, sans-serif" font-size="15" lengthAdjust="spacing" textLength="90.6226" x="390.5" y="90.1211">object : "page"</text><text fill="#1F2937" font-family="Calibri, Carlito, sans-serif" font-size="15" lengthAdjust="spacing" textLength="84.6313" x="390.5" y="108.4316">entry : Entry[]</text></g><!--class EN--><g class="entity" data-entity="EN" data-source-line="13" data-uid="ent0004" id="entity_EN"><rect fill="#FFFFFF" height="54.6211" rx="4" ry="4" style="stroke:#7030A0;stroke-width:0.5;" width="194.9224" x="296.5" y="156.5283"/><rect fill="#EDE4F5" height="28.3105" rx="4" ry="4" style="stroke:#EDE4F5;stroke-width:0.5;" width="194.9224" x="296.5" y="156.5283"/><rect fill="#EDE4F5" height="4" style="stroke:#EDE4F5;stroke-width:0.5;" width="194.9224" x="296.5" y="180.8389"/><rect fill="none" height="54.6211" rx="4" ry="4" style="stroke:#7030A0;stroke-width:0.5;" width="194.9224" x="296.5" y="156.5283"/><text fill="#1F2937" font-family="Calibri, Carlito, sans-serif" font-size="15" font-weight="bold" lengthAdjust="spacing" textLength="33.0029" x="377.4597" y="175.8105">Entry</text><line style="stroke:#7030A0;stroke-width:0.5;" x1="297.5" x2="490.4224" y1="184.8389" y2="184.8389"/><text fill="#1F2937" font-family="Calibri, Carlito, sans-serif" font-size="15" lengthAdjust="spacing" textLength="182.9224" x="302.5" y="203.1211">messaging : MessagingEvent[]</text></g><!--class ME--><g class="entity" data-entity="ME" data-source-line="16" data-uid="ent0005" id="entity_ME"><rect fill="#FFFFFF" height="91.2422" rx="4" ry="4" style="stroke:#7030A0;stroke-width:0.5;" width="164.7832" x="272.5" y="251.5283"/><rect fill="#EDE4F5" height="28.3105" rx="4" ry="4" style="stroke:#EDE4F5;stroke-width:0.5;" width="164.7832" x="272.5" y="251.5283"/><rect fill="#EDE4F5" height="4" style="stroke:#EDE4F5;stroke-width:0.5;" width="164.7832" x="272.5" y="275.8389"/><rect fill="none" height="91.2422" rx="4" ry="4" style="stroke:#7030A0;stroke-width:0.5;" width="164.7832" x="272.5" y="251.5283"/><text fill="#1F2937" font-family="Calibri, Carlito, sans-serif" font-size="15" font-weight="bold" lengthAdjust="spacing" textLength="101.2061" x="304.2886" y="270.8105">MessagingEvent</text><line style="stroke:#7030A0;stroke-width:0.5;" x1="273.5" x2="436.2832" y1="279.8389" y2="279.8389"/><text fill="#1F2937" font-family="Calibri, Carlito, sans-serif" font-size="15" lengthAdjust="spacing" textLength="95.3394" x="278.5" y="298.1211">sender.id : PSID</text><text fill="#1F2937" font-family="Calibri, Carlito, sans-serif" font-size="15" lengthAdjust="spacing" textLength="135.3662" x="278.5" y="316.4316">timestamp : epoch ms</text><text fill="#1F2937" font-family="Calibri, Carlito, sans-serif" font-size="15" lengthAdjust="spacing" textLength="152.7832" x="278.5" y="334.7422">message : Message [0..1]</text></g><!--class MS--><g class="entity" data-entity="MS" data-source-line="21" data-uid="ent0006" id="entity_MS"><rect fill="#FFFFFF" height="109.5527" rx="4" ry="4" style="stroke:#7030A0;stroke-width:0.5;" width="203.9897" x="253" y="395.5283"/><rect fill="#EDE4F5" height="28.3105" rx="4" ry="4" style="stroke:#EDE4F5;stroke-width:0.5;" width="203.9897" x="253" y="395.5283"/><rect fill="#EDE4F5" height="4" style="stroke:#EDE4F5;stroke-width:0.5;" width="203.9897" x="253" y="419.8389"/><rect fill="none" height="109.5527" rx="4" ry="4" style="stroke:#7030A0;stroke-width:0.5;" width="203.9897" x="253" y="395.5283"/><text fill="#1F2937" font-family="Calibri, Carlito, sans-serif" font-size="15" font-weight="bold" lengthAdjust="spacing" textLength="54.6973" x="327.6462" y="414.8105">Message</text><line style="stroke:#7030A0;stroke-width:0.5;" x1="254" x2="455.9897" y1="423.8389" y2="423.8389"/><text fill="#1F2937" font-family="Calibri, Carlito, sans-serif" font-size="15" lengthAdjust="spacing" textLength="68.606" x="259" y="442.1211">mid : string</text><text fill="#1F2937" font-family="Calibri, Carlito, sans-serif" font-size="15" lengthAdjust="spacing" textLength="104.6777" x="259" y="460.4316">text : string [0..1]</text><text fill="#1F2937" font-family="Calibri, Carlito, sans-serif" font-size="15" lengthAdjust="spacing" textLength="142.2144" x="259" y="478.7422">is_echo : boolean [0..1]</text><text fill="#1F2937" font-family="Calibri, Carlito, sans-serif" font-size="15" lengthAdjust="spacing" textLength="191.9897" x="259" y="497.0527">attachments : Attachment[0..*]</text></g><!--class AT--><g class="entity" data-entity="AT" data-source-line="27" data-uid="ent0007" id="entity_AT"><rect fill="#FFFFFF" height="109.5527" rx="4" ry="4" style="stroke:#7030A0;stroke-width:0.5;" width="301.7241" x="229" y="554.5283"/><rect fill="#EDE4F5" height="28.3105" rx="4" ry="4" style="stroke:#EDE4F5;stroke-width:0.5;" width="301.7241" x="229" y="554.5283"/><rect fill="#EDE4F5" height="4" style="stroke:#EDE4F5;stroke-width:0.5;" width="301.7241" x="229" y="578.8389"/><rect fill="none" height="109.5527" rx="4" ry="4" style="stroke:#7030A0;stroke-width:0.5;" width="301.7241" x="229" y="554.5283"/><text fill="#1F2937" font-family="Calibri, Carlito, sans-serif" font-size="15" font-weight="bold" lengthAdjust="spacing" textLength="74.2236" x="342.7502" y="573.8105">Attachment</text><line style="stroke:#7030A0;stroke-width:0.5;" x1="230" x2="529.7241" y1="582.8389" y2="582.8389"/><text fill="#1F2937" font-family="Calibri, Carlito, sans-serif" font-size="15" lengthAdjust="spacing" textLength="289.7241" x="235" y="601.1211">type : image | video | audio | file | location | &#8230;</text><text fill="#1F2937" font-family="Calibri, Carlito, sans-serif" font-size="15" lengthAdjust="spacing" textLength="149.2822" x="235" y="619.4316">payload.url : string [0..1]</text><text fill="#1F2937" font-family="Calibri, Carlito, sans-serif" font-size="15" lengthAdjust="spacing" textLength="157.1265" x="235" y="637.7422">payload.title : string [0..1]</text><text fill="#1F2937" font-family="Calibri, Carlito, sans-serif" font-size="15" lengthAdjust="spacing" textLength="228.8745" x="235" y="656.0527">payload.coordinates : {lat, long} [0..1]</text></g><!--class MR--><g class="entity" data-entity="MR" data-source-line="36" data-uid="ent0009" id="entity_MR"><rect fill="#FFFFFF" height="127.8633" rx="4" ry="4" style="stroke:#7030A0;stroke-width:0.5;" width="365.1445" x="794.5" y="545.5283"/><rect fill="#EDE4F5" height="46.6211" rx="4" ry="4" style="stroke:#EDE4F5;stroke-width:0.5;" width="365.1445" x="794.5" y="545.5283"/><rect fill="#EDE4F5" height="4" style="stroke:#EDE4F5;stroke-width:0.5;" width="365.1445" x="794.5" y="588.1494"/><rect fill="none" height="127.8633" rx="4" ry="4" style="stroke:#7030A0;stroke-width:0.5;" width="365.1445" x="794.5" y="545.5283"/><text fill="#1F2937" font-family="Calibri, Carlito, sans-serif" font-size="15" font-style="italic" lengthAdjust="spacing" textLength="79.6362" x="937.2542" y="564.8105">&#171;JSON body&#187;</text><text fill="#1F2937" font-family="Calibri, Carlito, sans-serif" font-size="15" font-weight="bold" lengthAdjust="spacing" textLength="102.2534" x="925.9456" y="583.1211">POST /messages</text><line style="stroke:#7030A0;stroke-width:0.5;" x1="795.5" x2="1158.6445" y1="592.1494" y2="592.1494"/><text fill="#1F2937" font-family="Calibri, Carlito, sans-serif" font-size="15" lengthAdjust="spacing" textLength="205.3345" x="800.5" y="610.4316">messaging_product = "whatsapp"</text><text fill="#1F2937" font-family="Calibri, Carlito, sans-serif" font-size="15" lengthAdjust="spacing" textLength="174.3311" x="800.5" y="628.7422">recipient_type = "individual"</text><text fill="#1F2937" font-family="Calibri, Carlito, sans-serif" font-size="15" lengthAdjust="spacing" textLength="167.4976" x="800.5" y="647.0527">to = WHATSAPP_RECIPIENT</text><text fill="#1F2937" font-family="Calibri, Carlito, sans-serif" font-size="15" lengthAdjust="spacing" textLength="353.1445" x="800.5" y="665.3633">type : text | image | video | audio | document | template</text></g><!--class TX--><g class="entity" data-entity="TX" data-source-line="42" data-uid="ent0010" id="entity_TX"><rect fill="#FFFFFF" height="72.9316" rx="4" ry="4" style="stroke:#7030A0;stroke-width:0.5;" width="181.1602" x="878.5" y="760.0283"/><rect fill="#EDE4F5" height="28.3105" rx="4" ry="4" style="stroke:#EDE4F5;stroke-width:0.5;" width="181.1602" x="878.5" y="760.0283"/><rect fill="#EDE4F5" height="4" style="stroke:#EDE4F5;stroke-width:0.5;" width="181.1602" x="878.5" y="784.3389"/><rect fill="none" height="72.9316" rx="4" ry="4" style="stroke:#7030A0;stroke-width:0.5;" width="181.1602" x="878.5" y="760.0283"/><text fill="#1F2937" font-family="Calibri, Carlito, sans-serif" font-size="15" font-weight="bold" lengthAdjust="spacing" textLength="24.8438" x="956.6582" y="779.3105">text</text><line style="stroke:#7030A0;stroke-width:0.5;" x1="879.5" x2="1058.6602" y1="788.3389" y2="788.3389"/><text fill="#1F2937" font-family="Calibri, Carlito, sans-serif" font-size="15" lengthAdjust="spacing" textLength="169.1602" x="884.5" y="806.6211">body : string (&#8804; 4,096 chars)</text><text fill="#1F2937" font-family="Calibri, Carlito, sans-serif" font-size="15" lengthAdjust="spacing" textLength="115.7886" x="884.5" y="824.9316">preview_url = false</text></g><!--class MO--><g class="entity" data-entity="MO" data-source-line="46" data-uid="ent0011" id="entity_MO"><rect fill="#FFFFFF" height="72.9316" rx="4" ry="4" style="stroke:#7030A0;stroke-width:0.5;" width="261.4849" x="587.5" y="760.0283"/><rect fill="#EDE4F5" height="28.3105" rx="4" ry="4" style="stroke:#EDE4F5;stroke-width:0.5;" width="261.4849" x="587.5" y="760.0283"/><rect fill="#EDE4F5" height="4" style="stroke:#EDE4F5;stroke-width:0.5;" width="261.4849" x="587.5" y="784.3389"/><rect fill="none" height="72.9316" rx="4" ry="4" style="stroke:#7030A0;stroke-width:0.5;" width="261.4849" x="587.5" y="760.0283"/><text fill="#1F2937" font-family="Calibri, Carlito, sans-serif" font-size="15" font-weight="bold" lengthAdjust="spacing" textLength="212.8198" x="611.8325" y="779.3105">image | video | audio | document</text><line style="stroke:#7030A0;stroke-width:0.5;" x1="588.5" x2="847.9849" y1="788.3389" y2="788.3389"/><text fill="#1F2937" font-family="Calibri, Carlito, sans-serif" font-size="15" lengthAdjust="spacing" textLength="185.105" x="593.5" y="806.6211">link : URL  &#8212;or&#8212;  id : media id</text><text fill="#1F2937" font-family="Calibri, Carlito, sans-serif" font-size="15" lengthAdjust="spacing" textLength="249.4849" x="593.5" y="824.9316">caption : string (&#8804; 1,024; never for audio)</text></g><!--class TP--><g class="entity" data-entity="TP" data-source-line="50" data-uid="ent0012" id="entity_TP"><rect fill="#FFFFFF" height="127.8633" rx="4" ry="4" style="stroke:#7030A0;stroke-width:0.5;" width="298.4429" x="1090" y="732.5283"/><rect fill="#EDE4F5" height="28.3105" rx="4" ry="4" style="stroke:#EDE4F5;stroke-width:0.5;" width="298.4429" x="1090" y="732.5283"/><rect fill="#EDE4F5" height="4" style="stroke:#EDE4F5;stroke-width:0.5;" width="298.4429" x="1090" y="756.8389"/><rect fill="none" height="127.8633" rx="4" ry="4" style="stroke:#7030A0;stroke-width:0.5;" width="298.4429" x="1090" y="732.5283"/><text fill="#1F2937" font-family="Calibri, Carlito, sans-serif" font-size="15" font-weight="bold" lengthAdjust="spacing" textLength="56.8433" x="1210.7998" y="751.8105">template</text><line style="stroke:#7030A0;stroke-width:0.5;" x1="1091" x2="1387.4429" y1="760.8389" y2="760.8389"/><text fill="#1F2937" font-family="Calibri, Carlito, sans-serif" font-size="15" lengthAdjust="spacing" textLength="236.792" x="1096" y="779.1211">name = WHATSAPP_TEMPLATE_NAME</text><text fill="#1F2937" font-family="Calibri, Carlito, sans-serif" font-size="15" lengthAdjust="spacing" textLength="286.4429" x="1096" y="797.4316">language.code = WHATSAPP_TEMPLATE_LANG</text><text fill="#1F2937" font-family="Calibri, Carlito, sans-serif" font-size="15" lengthAdjust="spacing" textLength="180.6299" x="1096" y="815.7422">components[0].type = "body"</text><text fill="#1F2937" font-family="Calibri, Carlito, sans-serif" font-size="15" lengthAdjust="spacing" textLength="238.8794" x="1096" y="834.0527">parameters {{1}} = senderName (&#8804; 200)</text><text fill="#1F2937" font-family="Calibri, Carlito, sans-serif" font-size="15" lengthAdjust="spacing" textLength="209.7583" x="1096" y="852.3633">parameters {{2}} = preview (&#8804; 500)</text></g><!--class MU--><g class="entity" data-entity="MU" data-source-line="57" data-uid="ent0013" id="entity_MU"><rect fill="#FFFFFF" height="109.5527" rx="4" ry="4" style="stroke:#7030A0;stroke-width:0.5;" width="261.0015" x="587.5" y="395.5283"/><rect fill="#EDE4F5" height="46.6211" rx="4" ry="4" style="stroke:#EDE4F5;stroke-width:0.5;" width="261.0015" x="587.5" y="395.5283"/><rect fill="#EDE4F5" height="4" style="stroke:#EDE4F5;stroke-width:0.5;" width="261.0015" x="587.5" y="438.1494"/><rect fill="none" height="109.5527" rx="4" ry="4" style="stroke:#7030A0;stroke-width:0.5;" width="261.0015" x="587.5" y="395.5283"/><text fill="#1F2937" font-family="Calibri, Carlito, sans-serif" font-size="15" font-style="italic" lengthAdjust="spacing" textLength="140.2954" x="647.853" y="414.8105">&#171;multipart/form-data&#187;</text><text fill="#1F2937" font-family="Calibri, Carlito, sans-serif" font-size="15" font-weight="bold" lengthAdjust="spacing" textLength="81.3721" x="677.3147" y="433.1211">POST /media</text><line style="stroke:#7030A0;stroke-width:0.5;" x1="588.5" x2="847.5015" y1="442.1494" y2="442.1494"/><text fill="#1F2937" font-family="Calibri, Carlito, sans-serif" font-size="15" lengthAdjust="spacing" textLength="205.3345" x="593.5" y="460.4316">messaging_product = "whatsapp"</text><text fill="#1F2937" font-family="Calibri, Carlito, sans-serif" font-size="15" lengthAdjust="spacing" textLength="225.0146" x="593.5" y="478.7422">type : Content-Type of the download</text><text fill="#1F2937" font-family="Calibri, Carlito, sans-serif" font-size="15" lengthAdjust="spacing" textLength="249.0015" x="593.5" y="497.0527">file : Blob (payload.title or "attachment")</text></g><!--class UR--><g class="entity" data-entity="UR" data-source-line="62" data-uid="ent0014" id="entity_UR"><rect fill="#FFFFFF" height="54.6211" rx="4" ry="4" style="stroke:#7030A0;stroke-width:0.5;" width="111" x="653.5" y="582.0283"/><rect fill="#EDE4F5" height="28.3105" rx="4" ry="4" style="stroke:#EDE4F5;stroke-width:0.5;" width="111" x="653.5" y="582.0283"/><rect fill="#EDE4F5" height="4" style="stroke:#EDE4F5;stroke-width:0.5;" width="111" x="653.5" y="606.3389"/><rect fill="none" height="54.6211" rx="4" ry="4" style="stroke:#7030A0;stroke-width:0.5;" width="111" x="653.5" y="582.0283"/><text fill="#1F2937" font-family="Calibri, Carlito, sans-serif" font-size="15" font-weight="bold" lengthAdjust="spacing" textLength="105" x="656.5" y="601.3105">Upload response</text><line style="stroke:#7030A0;stroke-width:0.5;" x1="654.5" x2="763.5" y1="610.3389" y2="610.3389"/><text fill="#1F2937" font-family="Calibri, Carlito, sans-serif" font-size="15" lengthAdjust="spacing" textLength="74.7876" x="659.5" y="628.6211">id : media id</text></g><!--class SEEN--><g class="entity" data-entity="SEEN" data-source-line="68" data-uid="ent0016" id="entity_SEEN"><rect fill="#FFFFFF" height="91.2422" rx="4" ry="4" style="stroke:#7030A0;stroke-width:0.5;" width="206.502" x="250.5" y="751.0283"/><rect fill="#EDE4F5" height="46.6211" rx="4" ry="4" style="stroke:#EDE4F5;stroke-width:0.5;" width="206.502" x="250.5" y="751.0283"/><rect fill="#EDE4F5" height="4" style="stroke:#EDE4F5;stroke-width:0.5;" width="206.502" x="250.5" y="793.6494"/><rect fill="none" height="91.2422" rx="4" ry="4" style="stroke:#7030A0;stroke-width:0.5;" width="206.502" x="250.5" y="751.0283"/><text fill="#1F2937" font-family="Calibri, Carlito, sans-serif" font-size="15" font-style="italic" lengthAdjust="spacing" textLength="34.3359" x="336.583" y="770.3105">&#171;Set&#187;</text><text fill="#1F2937" font-family="Calibri, Carlito, sans-serif" font-size="15" font-weight="bold" lengthAdjust="spacing" textLength="101.8652" x="302.8184" y="788.6211">seenMessageIds</text><line style="stroke:#7030A0;stroke-width:0.5;" x1="251.5" x2="456.002" y1="797.6494" y2="797.6494"/><text fill="#1F2937" font-family="Calibri, Carlito, sans-serif" font-size="15" lengthAdjust="spacing" textLength="68.606" x="256.5" y="815.9316">mid : string</text><text fill="#1F2937" font-family="Calibri, Carlito, sans-serif" font-size="15" lengthAdjust="spacing" textLength="194.502" x="256.5" y="834.2422">max 5,000 &#183; prunes oldest 1,000</text></g><!--class NC--><g class="entity" data-entity="NC" data-source-line="72" data-uid="ent0017" id="entity_NC"><rect fill="#FFFFFF" height="109.5527" rx="4" ry="4" style="stroke:#7030A0;stroke-width:0.5;" width="197.5298" x="22" y="741.5283"/><rect fill="#EDE4F5" height="46.6211" rx="4" ry="4" style="stroke:#EDE4F5;stroke-width:0.5;" width="197.5298" x="22" y="741.5283"/><rect fill="#EDE4F5" height="4" style="stroke:#EDE4F5;stroke-width:0.5;" width="197.5298" x="22" y="784.1494"/><rect fill="none" height="109.5527" rx="4" ry="4" style="stroke:#7030A0;stroke-width:0.5;" width="197.5298" x="22" y="741.5283"/><text fill="#1F2937" font-family="Calibri, Carlito, sans-serif" font-size="15" font-style="italic" lengthAdjust="spacing" textLength="79.7241" x="80.9028" y="760.8105">&#171;Map value&#187;</text><text fill="#1F2937" font-family="Calibri, Carlito, sans-serif" font-size="15" font-weight="bold" lengthAdjust="spacing" textLength="109.0576" x="66.2361" y="779.1211">nameCache entry</text><line style="stroke:#7030A0;stroke-width:0.5;" x1="23" x2="218.5298" y1="788.1494" y2="788.1494"/><text fill="#1F2937" font-family="Calibri, Carlito, sans-serif" font-size="15" lengthAdjust="spacing" textLength="59.5166" x="28" y="806.4316">key : PSID</text><text fill="#1F2937" font-family="Calibri, Carlito, sans-serif" font-size="15" lengthAdjust="spacing" textLength="79.812" x="28" y="824.7422">name : string</text><text fill="#1F2937" font-family="Calibri, Carlito, sans-serif" font-size="15" lengthAdjust="spacing" textLength="185.5298" x="28" y="843.0527">fetchedAt : epoch ms (TTL 6 h)</text></g><!--reverse link WB to EN--><g class="link" data-entity-1="WB" data-entity-2="EN" data-source-line="79" data-uid="lnk18" id="link_WB_EN"><path codeLine="79" d="M436,128.6983 C436,141.7983 436,144.3183 436,156.5183" fill="none" id="WB-backto-EN" style="stroke:#404040;stroke-width:1.3;"/><polygon fill="#404040" points="436,116.6983,432,122.6983,436,128.6983,440,122.6983,436,116.6983" style="stroke:#404040;stroke-width:1.3;"/><text fill="#1F2937" font-family="Calibri, Carlito, sans-serif" font-size="13" lengthAdjust="spacing" textLength="6.5889" x="429.5674" y="136.7485">1</text><text fill="#1F2937" font-family="Calibri, Carlito, sans-serif" font-size="13" lengthAdjust="spacing" textLength="19.627" x="425.4184" y="145.0848">0..*</text></g><!--reverse link EN to ME--><g class="link" data-entity-1="EN" data-entity-2="ME" data-source-line="80" data-uid="lnk19" id="link_EN_ME"><path codeLine="80" d="M367,223.6683 C367,235.5583 367,237.7883 367,251.1783" fill="none" id="EN-backto-ME" style="stroke:#404040;stroke-width:1.3;"/><polygon fill="#404040" points="367,211.6683,363,217.6683,367,223.6683,371,217.6683,367,211.6683" style="stroke:#404040;stroke-width:1.3;"/><text fill="#1F2937" font-family="Calibri, Carlito, sans-serif" font-size="13" lengthAdjust="spacing" textLength="6.5889" x="354.8812" y="231.4226">1</text><text fill="#1F2937" font-family="Calibri, Carlito, sans-serif" font-size="13" lengthAdjust="spacing" textLength="19.627" x="348.4657" y="240.1036">0..*</text></g><!--reverse link ME to MS--><g class="link" data-entity-1="ME" data-entity-2="MS" data-source-line="81" data-uid="lnk20" id="link_ME_MS"><path codeLine="81" d="M355,354.6683 C355,371.1983 355,378.0383 355,395.2983" fill="none" id="ME-backto-MS" style="stroke:#404040;stroke-width:1.3;"/><polygon fill="#404040" points="355,342.6683,351,348.6683,355,354.6683,359,348.6683,355,342.6683" style="stroke:#404040;stroke-width:1.3;"/><text fill="#1F2937" font-family="Calibri, Carlito, sans-serif" font-size="13" lengthAdjust="spacing" textLength="6.5889" x="348.6023" y="363.2313">1</text><text fill="#1F2937" font-family="Calibri, Carlito, sans-serif" font-size="13" lengthAdjust="spacing" textLength="19.7412" x="334.7169" y="383.9474">0..1</text></g><!--reverse link MS to AT--><g class="link" data-entity-1="MS" data-entity-2="AT" data-source-line="82" data-uid="lnk21" id="link_MS_AT"><path codeLine="82" d="M355,517.6883 C355,533.4783 355,538.6783 355,554.4583" fill="none" id="MS-backto-AT" style="stroke:#404040;stroke-width:1.3;"/><polygon fill="#404040" points="355,505.6883,351,511.6883,355,517.6883,359,511.6883,355,505.6883" style="stroke:#404040;stroke-width:1.3;"/><text fill="#1F2937" font-family="Calibri, Carlito, sans-serif" font-size="13" lengthAdjust="spacing" textLength="6.5889" x="348.6878" y="525.3874">1</text><text fill="#1F2937" font-family="Calibri, Carlito, sans-serif" font-size="13" lengthAdjust="spacing" textLength="19.627" x="331.2119" y="543.1299">0..*</text></g><!--reverse link MR to TX--><g class="link" data-entity-1="MR" data-entity-2="TX" data-source-line="83" data-uid="lnk22" id="link_MR_TX"><path codeLine="83" d="M969,685.6183 C969,714.3783 969,735.2683 969,759.7883" fill="none" id="MR-backto-TX" style="stroke:#404040;stroke-width:1.3;"/><polygon fill="#404040" points="969,673.6183,965,679.6183,969,685.6183,973,679.6183,969,673.6183" style="stroke:#404040;stroke-width:1.3;"/><text fill="#1F2937" font-family="Calibri, Carlito, sans-serif" font-size="13" lengthAdjust="spacing" textLength="56.6973" x="912" y="713.0863">type = text</text><text fill="#1F2937" font-family="Calibri, Carlito, sans-serif" font-size="13" lengthAdjust="spacing" textLength="19.7412" x="948.1869" y="748.5488">0..1</text></g><!--reverse link MR to MO--><g class="link" data-entity-1="MR" data-entity-2="MO" data-source-line="84" data-uid="lnk23" id="link_MR_MO"><path codeLine="84" d="M821.5,685.6183 C821.5,714.3783 821.5,735.2683 821.5,759.7883" fill="none" id="MR-backto-MO" style="stroke:#404040;stroke-width:1.3;"/><polygon fill="#404040" points="821.5,673.6183,817.5,679.6183,821.5,685.6183,825.5,679.6183,821.5,673.6183" style="stroke:#404040;stroke-width:1.3;"/><text fill="#1F2937" font-family="Calibri, Carlito, sans-serif" font-size="13" lengthAdjust="spacing" textLength="68.7832" x="752.5" y="713.0863">type = media</text><text fill="#1F2937" font-family="Calibri, Carlito, sans-serif" font-size="13" lengthAdjust="spacing" textLength="19.7412" x="821.0315" y="748.5488">0..1</text></g><!--reverse link MR to TP--><g class="link" data-entity-1="MR" data-entity-2="TP" data-source-line="85" data-uid="lnk24" id="link_MR_TP"><path codeLine="85" d="M1124.75,685.6183 C1124.75,704.6483 1124.75,713.4883 1124.75,732.5183" fill="none" id="MR-backto-TP" style="stroke:#404040;stroke-width:1.3;"/><polygon fill="#404040" points="1124.75,673.6183,1120.75,679.6183,1124.75,685.6183,1128.75,679.6183,1124.75,673.6183" style="stroke:#404040;stroke-width:1.3;"/><text fill="#1F2937" font-family="Calibri, Carlito, sans-serif" font-size="13" lengthAdjust="spacing" textLength="83.9604" x="1040.75" y="699.4463">type = template</text><text fill="#1F2937" font-family="Calibri, Carlito, sans-serif" font-size="13" lengthAdjust="spacing" textLength="19.7412" x="1090.6861" y="721.2423">0..1</text></g><!--link MU to UR--><g class="link" data-entity-1="MU" data-entity-2="UR" data-source-line="86" data-uid="lnk25" id="link_MU_UR"><path codeLine="86" d="M709,505.6883 C709,531.3483 709,554.7383 709,575.6883" fill="none" id="MU-to-UR" style="stroke:#404040;stroke-width:1.3;stroke-dasharray:7,7;"/><polygon fill="#404040" points="709,581.6883,713,572.6883,709,576.6883,705,572.6883,709,581.6883" style="stroke:#404040;stroke-width:1.3;"/><text fill="#1F2937" font-family="Calibri, Carlito, sans-serif" font-size="13" lengthAdjust="spacing" textLength="38.6318" x="670" y="540.0663">returns</text></g><!--link UR to MO--><g class="link" data-entity-1="UR" data-entity-2="MO" data-source-line="87" data-uid="lnk26" id="link_UR_MO"><path codeLine="87" d="M709,637.1183 C709,669.6283 709,717.7683 709,753.8083" fill="none" id="UR-to-MO" style="stroke:#404040;stroke-width:1.3;stroke-dasharray:7,7;"/><polygon fill="#404040" points="709,759.8083,713,750.8083,709,754.8083,705,750.8083,709,759.8083" style="stroke:#404040;stroke-width:1.3;"/><text fill="#1F2937" font-family="Calibri, Carlito, sans-serif" font-size="13" lengthAdjust="spacing" textLength="53.6187" x="655" y="711.8463">id used by</text></g><!--link AT to MO--><g class="link" data-entity-1="AT" data-entity-2="MO" data-source-line="88" data-uid="lnk27" id="link_AT_MO"><path codeLine="88" d="M531.29,651.5283 C579.46,651.5283 620.5,651.5283 620.5,651.5283 C620.5,651.5283 620.5,710.9883 620.5,753.9383" fill="none" id="AT-to-MO" style="stroke:#404040;stroke-width:1.3;stroke-dasharray:7,7;"/><polygon fill="#404040" points="620.5,759.9383,624.5,750.9383,620.5,754.9383,616.5,750.9383,620.5,759.9383" style="stroke:#404040;stroke-width:1.3;"/><text fill="#1F2937" font-family="Calibri, Carlito, sans-serif" font-size="13" lengthAdjust="spacing" textLength="42.6753" x="648.1538" y="674.5063">maps to</text><text fill="#1F2937" font-family="Calibri, Carlito, sans-serif" font-size="13" lengthAdjust="spacing" textLength="95.9829" x="621.5" y="690.3754">(file &#8594; document)</text></g><!--link MS to SEEN--><g class="link" data-entity-1="MS" data-entity-2="SEEN" data-source-line="89" data-uid="lnk28" id="link_MS_SEEN"><path codeLine="89" d="M252.82,450.5283 C236.31,450.5283 224.5,450.5283 224.5,450.5283 C224.5,450.5283 224.5,796.5283 224.5,796.5283 C224.5,796.5283 229.17,796.5283 244.4,796.5283" fill="none" id="MS-to-SEEN" style="stroke:#404040;stroke-width:1.3;stroke-dasharray:7,7;"/><polygon fill="#404040" points="250.4,796.5283,241.4,792.5283,245.4,796.5283,241.4,800.5283,250.4,796.5283" style="stroke:#404040;stroke-width:1.3;"/><text fill="#1F2937" font-family="Calibri, Carlito, sans-serif" font-size="13" lengthAdjust="spacing" textLength="71.1509" x="152.5" y="618.6963">mid recorded</text></g><!--link ME to NC--><g class="link" data-entity-1="ME" data-entity-2="NC" data-source-line="90" data-uid="lnk29" id="link_ME_NC"><path codeLine="90" d="M272.17,297.5283 C204.86,297.5283 121,297.5283 121,297.5283 C121,297.5283 121,605.2983 121,735.2183" fill="none" id="ME-to-NC" style="stroke:#404040;stroke-width:1.3;stroke-dasharray:7,7;"/><polygon fill="#404040" points="121,741.2183,125,732.2183,121,736.2183,117,732.2183,121,741.2183" style="stroke:#404040;stroke-width:1.3;"/><text fill="#1F2937" font-family="Calibri, Carlito, sans-serif" font-size="13" lengthAdjust="spacing" textLength="104.749" x="16" y="440.1663">sender.id looked up</text></g><!--link WB to MR--><!--link AT to SEEN--><!--SRC=[bLRDRkCs4BxxAQOwnOlOgwJP1Ufc0sXJetKH_o1Ma09fOD3Yn68jaQf8EMja3UofGAz57w7eA_JUHycJT4Z9jgncKVGaQMOuVz_76NqXP9GK746RTO9TKQH9AnRqZMbcrf1YEiTSbw98v562BRqKCcCvIq4gZXep-DAl2NCcbrPuLXScGg9PPmWgDx5gjJ8MBTa2mHl8kIeaX-TFlyCGjKQvm1mUSHuhjOIChHF5E1mz24ou1XDJefYlH8IG8-EwxG7JC1Z1KmiWIfZMuDrMX-UAhvtwzhrJ0wZvJnWPw86NKN3FoL2QV4sYldtUtPDiitVbXCv7VrJvI2b9jX1oGMU6s_V-Yjmq3nzgdPTXl_92TNBCkuAJbybqy8qJ6a7E3Kip4cAceXXINOk9kuW8TtwtU_9YF2m3JRVfkX3Qv9H76GG_c9raxmT0w1b6iIBTNAa4cQmhcJ4iYbEgGvD1iFko9gyQUUorBfKWh59n-FT0fBQ0Zx0YIYbwie8B-tmGYHKdAc96A4clpv_-T0Sh5dIBF7anywtU29FWYnPFZZ-RdMMaLCw5P0PjEKy9CySKM2uszSPkQZGT5sRFqzkO6Hra6Lmcgk0GJ0P4nfyBmawxYiStOPsFa_4qXDSLXgN5y1hEpx-VZaUEf1SNJMxDibpnWgZw3hn76urbMKdN72EH2UhjpBMJz49oGRqiM59Q64NIs- -2S1fC9hFh_kLWCkYFmZe4ZWCVFui4Lr5XuQDNGsE0keE72DlphexmXohpRODjENi4Zfv__GFEZlslta8KirotIxXoN0byd5auty43ItJ3_N_bLRPmN8McqRAaa3VNLs3HKRc521pjK-I2qUj1YX7B7ByEipmvza_FlWQ9Ane_3oelWxQRTPVTA6kVL0b8bcAzvM5_EBaAmlvi50pxPOfCBWggYNZ7NpQz2aRVEjD8fPcIzfxT-VVTBSPkb3MOJ6CL3SrcU7ewsMp8gfmf8vkDA-dKzzkVFtFgpbHOb0VUb0Ss_wOkjR5i-WtnDYqI8yYNUKrzIZkS6VP_65nny599GsLsGhSL7jnev-fHsljvaBMR2prudwWv71rUTOB9sqychv7yJUPsHuwQEgfBq6wkgqIR_3YyxWFPeSsdQ37GFAxm7lQ7zLkj4MKrSGUylDNJFcs9y_Cfcdq_ckCtPH_WpR7l-_3tNzJzGj84KWcjKMCfwFk79LXgNL9vMAuf5sLqIJ66B8CLImhSHLhYkhvB72aF8k_wYOOSyi3KjWmSXU4Ll8MulMq5xKpln8DNdGvuTiPxj05RL5v3I0IddLONqkjmsgBzqx0CmXPDlPeLpOuUL0It0wMXflkzKpkSciSdzUFLb29-ThiN5kKUuMwANEeMVLYPyqTe51evpDSjMaixSSeo-hTGFyeZHxRdNtxRpPgsBSKQEd1x3b2QmRG-aDlIhOeGwTKsUa8_7nIZo6mJEtVqwyHHtkTY4PiEJNuRUIUrZEyut_y0]--></g></svg>