<svg xmlns="http://www.w3.org/2000/svg" viewBox="0 0 480 360" width="480" height="360"><rect width="480" height="360" fill="#f5f5f4"/><circle cx="240" cy="176" r="132" fill="#e7e5e4"/><ellipse cx="240" cy="318" rx="128" ry="14" fill="#d6d3d1"/><g transform="translate(240,180)">
 <ellipse cx="0" cy="-58" rx="96" ry="30" fill="#e4e4e7" stroke="#3f3f46" stroke-width="4"/>
 <path d="M-96 -58 v104 a96 30 0 0 0 192 0 v-104" fill="#d4d4d8" stroke="#3f3f46" stroke-width="4"/>
 <g stroke="#3f3f46" stroke-width="3" opacity=".55">
  <path d="M-72 -40 v88"/><path d="M-48 -50 v96"/><path d="M-24 -55 v100"/><path d="M0 -57 v102"/>
  <path d="M24 -55 v100"/><path d="M48 -50 v96"/><path d="M72 -40 v88"/>
 </g>
 <ellipse cx="0" cy="-58" rx="44" ry="14" fill="#a1a1aa" stroke="#3f3f46" stroke-width="4"/>
 <ellipse cx="0" cy="-58" rx="20" ry="7" fill="#27272a"/>
 <path d="M-96 34 a96 30 0 0 0 192 0" fill="none" stroke="#dc2626" stroke-width="6"/>
</g></svg>