<svg xmlns="http://www.w3.org/2000/svg" viewBox="0 0 480 360" width="480" height="360"><rect width="480" height="360" fill="#f5f5f4"/><circle cx="240" cy="176" r="132" fill="#e7e5e4"/><ellipse cx="240" cy="318" rx="128" ry="14" fill="#d6d3d1"/><g transform="translate(240,180)">
 <rect x="-70" y="-86" width="140" height="112" rx="14" fill="#27272a" stroke="#3f3f46" stroke-width="4"/>
 <rect x="-52" y="-66" width="104" height="30" rx="6" fill="#a1a1aa" opacity=".7"/>
 <path d="M-70 -40 h140" stroke="#a1a1aa" stroke-width="3" opacity=".5"/>
 <path d="M0 26 q0 60 -70 74" fill="none" stroke="#18181b" stroke-width="16" stroke-linecap="round"/>
 <path d="M-70 100 l-34 -6" stroke="#3f3f46" stroke-width="14" stroke-linecap="round"/>
 <rect x="-96" y="-100" width="26" height="18" rx="4" fill="#dc2626" stroke="#3f3f46" stroke-width="3"/>
 <rect x="70" y="-100" width="26" height="18" rx="4" fill="#d4d4d8" stroke="#3f3f46" stroke-width="3"/>
 <path d="M-40 -12 l14 0 -8 18 16 -2 -22 30 6 -22 -14 2z" fill="#f59e0b"/>
</g></svg>