<svg xmlns="http://www.w3.org/2000/svg" viewBox="0 0 480 360" width="480" height="360"><rect width="480" height="360" fill="#f5f5f4"/><circle cx="240" cy="176" r="132" fill="#e7e5e4"/><ellipse cx="240" cy="318" rx="128" ry="14" fill="#d6d3d1"/><g transform="translate(240,180) rotate(-20)">
 <rect x="-26" y="-130" width="52" height="60" rx="8" fill="#e4e4e7" stroke="#3f3f46" stroke-width="4"/>
 <rect x="-14" y="-142" width="28" height="16" rx="4" fill="#a1a1aa" stroke="#3f3f46" stroke-width="4"/>
 <path d="M-30 -70 l60 0 -6 26 -48 0z" fill="#a1a1aa" stroke="#3f3f46" stroke-width="4" stroke-linejoin="round"/>
 <rect x="-30" y="-44" width="60" height="26" fill="#d4d4d8" stroke="#3f3f46" stroke-width="4"/>
 <path d="M-30 -44 h60 M-30 -36 h60 M-30 -28 h60" stroke="#3f3f46" stroke-width="2" opacity=".5"/>
 <rect x="-22" y="-18" width="44" height="66" fill="#e4e4e7" stroke="#3f3f46" stroke-width="4"/>
 <path d="M-22 -6 h44 M-22 6 h44 M-22 18 h44 M-22 30 h44 M-22 42 h44" stroke="#3f3f46" stroke-width="2" opacity=".45"/>
 <rect x="-12" y="48" width="24" height="30" fill="#a1a1aa" stroke="#3f3f46" stroke-width="4"/>
 <path d="M-22 52 h-16 v26 h10" fill="none" stroke="#3f3f46" stroke-width="6" stroke-linecap="round"/>
 <circle cx="0" cy="84" r="5" fill="#dc2626"/>
</g></svg>